<svg width="215" height="209" viewBox="0 0 215 209" fill="none" xmlns="http://www.w3.org/2000/svg">
<g clip-path="url(#clip0_1_137)">
<path d="M106.65 208.234C47.5558 208.042 -0.198495 161.324 -0.0122514 103.887C0.173992 46.4499 48.2303 0.0430974 107.324 0.234713C166.419 0.42633 214.173 47.1438 213.987 104.581C213.8 162.018 165.744 208.425 106.65 208.234Z" fill="#F472B7"/>
<path d="M87.1577 60.0872C87.1451 63.9698 90.1968 62.1909 94.1915 62.2038C98.1861 62.2168 101.611 64.0236 101.624 60.1341C101.637 56.2445 98.4083 53.0932 94.4137 53.0803C90.4191 53.0604 87.1703 56.1976 87.1577 60.0872Z" fill="white"/>
<path d="M59.5156 59.9975C59.503 63.8802 62.5547 62.1013 66.5494 62.1142C70.544 62.1272 73.9693 63.934 73.9819 60.0444C73.9945 56.1549 70.7662 53.0036 66.7715 52.9906C62.7769 52.9707 59.5282 56.108 59.5156 59.9975Z" fill="white"/>
<path d="M66.3272 78.0674C66.3026 85.6525 72.6099 91.8228 80.4137 91.8481C88.2176 91.8734 94.5648 85.7441 94.5893 78.1591C94.6139 70.5741 88.2604 78.6655 80.4566 78.6402C72.6527 78.6149 66.3518 70.4824 66.3272 78.0674Z" fill="white"/>
</g>
<defs>
<clipPath id="clip0_1_137">
<rect width="214" height="208" fill="white" transform="matrix(-0.999995 -0.00324254 -0.00324254 0.999995 214.673 0.693909)"/>
</clipPath>
</defs>
</svg>
