<svg width="218" height="73" viewBox="0 0 218 73" fill="none" xmlns="http://www.w3.org/2000/svg">
<rect width="218" height="73" rx="36.5" fill="#FAD34F"/>
<path d="M52.63 37.652C53.026 39.596 54.664 41.144 56.842 41.144C59.11 41.144 60.73 39.668 60.73 37.418C60.73 35.546 59.668 34.592 57.85 33.746C56.698 33.242 56.086 32.936 55.636 32.378C55.402 32.108 55.294 31.784 55.294 31.424C55.294 30.704 55.924 30.11 56.734 30.11C57.58 30.11 58.192 30.56 58.534 31.46L60.136 30.434C59.506 28.976 58.372 28.256 56.734 28.256C54.79 28.256 53.368 29.66 53.368 31.496C53.368 33.206 54.34 34.178 55.87 34.952L56.194 35.114C57.364 35.69 57.958 35.996 58.39 36.554C58.606 36.824 58.714 37.13 58.714 37.508C58.714 38.678 57.976 39.29 56.896 39.29C55.51 39.29 54.682 38.228 54.268 36.644L52.63 37.652ZM70.6375 36.176C70.6375 33.944 69.1975 31.784 66.4795 31.784C63.6895 31.784 62.2315 34.052 62.2315 36.464C62.2315 38.876 63.6895 41.144 66.4795 41.144C68.4775 41.144 69.7195 40.28 70.5115 38.534L68.9455 37.922C68.3515 39.002 67.6675 39.488 66.5695 39.488C65.2195 39.488 64.3375 38.552 64.1755 36.968H70.6375V36.176ZM64.2655 35.42C64.5535 34.142 65.3995 33.44 66.4795 33.44C67.7575 33.44 68.4775 34.25 68.6935 35.42H64.2655ZM72.7198 41H74.6278V37.274C74.6278 34.88 75.6898 33.44 76.9498 33.44C77.8858 33.44 78.4258 33.998 78.4258 35.096V41H80.3158V34.592C80.3158 32.792 79.1998 31.784 77.5258 31.784C76.3558 31.784 75.2938 32.45 74.6278 33.512V31.928H72.7198V41ZM82.4111 36.464C82.4111 37.868 82.7531 39.002 83.4551 39.866C84.1571 40.712 85.1291 41.144 86.3891 41.144C87.5591 41.144 88.5491 40.586 88.9091 39.956V40.496V41H90.8171V28.256H88.9091V32.342V32.882C88.4051 32.234 87.4691 31.784 86.3891 31.784C85.1291 31.784 84.1571 32.216 83.4551 33.08C82.7531 33.926 82.4111 35.06 82.4111 36.464ZM89.0891 36.464C89.0891 38.318 88.1711 39.488 86.7491 39.488C85.3631 39.488 84.3911 38.318 84.3911 36.464C84.3911 34.61 85.3631 33.44 86.7491 33.44C88.1711 33.44 89.0891 34.61 89.0891 36.464ZM97.8917 41H99.7997V37.472C99.7997 34.898 100.7 33.44 101.978 33.44C102.842 33.44 103.256 33.908 103.256 34.934V41H105.146V37.328C105.146 34.826 106.1 33.44 107.324 33.44C108.188 33.44 108.602 33.908 108.602 34.934V41H110.492V34.628C110.492 32.81 109.556 31.784 107.828 31.784C106.694 31.784 105.65 32.522 105.002 33.692C104.642 32.414 103.724 31.784 102.482 31.784C101.384 31.784 100.484 32.36 99.7997 33.512V31.928H97.8917V41ZM120.981 36.176C120.981 33.944 119.541 31.784 116.823 31.784C114.033 31.784 112.575 34.052 112.575 36.464C112.575 38.876 114.033 41.144 116.823 41.144C118.821 41.144 120.063 40.28 120.855 38.534L119.289 37.922C118.695 39.002 118.011 39.488 116.913 39.488C115.563 39.488 114.681 38.552 114.519 36.968H120.981V36.176ZM114.609 35.42C114.897 34.142 115.743 33.44 116.823 33.44C118.101 33.44 118.821 34.25 119.037 35.42H114.609ZM122.241 38.678C122.619 40.046 123.861 41.144 125.733 41.144C127.533 41.144 128.739 40.028 128.739 38.282C128.739 37.112 128.001 36.248 126.525 35.726C125.067 35.168 124.617 34.826 124.617 34.304C124.617 33.782 125.049 33.44 125.625 33.44C126.273 33.44 126.795 33.728 127.173 34.304L128.343 33.242C127.785 32.288 126.831 31.784 125.607 31.784C124.023 31.784 122.835 32.864 122.835 34.268C122.835 35.618 123.609 36.374 125.031 36.896C126.273 37.382 126.939 37.76 126.939 38.39C126.939 39.092 126.435 39.488 125.733 39.488C124.815 39.488 124.149 38.948 123.771 37.868L122.241 38.678ZM129.957 38.678C130.335 40.046 131.577 41.144 133.449 41.144C135.249 41.144 136.455 40.028 136.455 38.282C136.455 37.112 135.717 36.248 134.241 35.726C132.783 35.168 132.333 34.826 132.333 34.304C132.333 33.782 132.765 33.44 133.341 33.44C133.989 33.44 134.511 33.728 134.889 34.304L136.059 33.242C135.501 32.288 134.547 31.784 133.323 31.784C131.739 31.784 130.551 32.864 130.551 34.268C130.551 35.618 131.325 36.374 132.747 36.896C133.989 37.382 134.655 37.76 134.655 38.39C134.655 39.092 134.151 39.488 133.449 39.488C132.531 39.488 131.865 38.948 131.487 37.868L129.957 38.678ZM137.818 38.39C137.818 40.172 138.988 41.144 140.59 41.144C141.796 41.144 142.732 40.694 143.398 39.776L143.65 41H145.18V35.402C145.18 33.044 143.812 31.784 141.562 31.784C139.816 31.784 138.448 32.792 138.16 34.286L139.816 34.664C140.086 33.854 140.68 33.44 141.562 33.44C142.588 33.44 143.29 33.944 143.29 35.024V35.42H141.706C139.312 35.42 137.818 36.536 137.818 38.39ZM143.29 37.202C143.29 38.678 142.138 39.488 141.04 39.488C140.302 39.488 139.798 39.038 139.798 38.372C139.798 37.436 140.482 36.968 141.778 36.968H143.29V37.202ZM146.848 41.828C146.848 43.718 148.45 44.816 150.844 44.816C151.978 44.816 152.914 44.546 153.688 44.024C154.462 43.502 154.84 42.728 154.84 41.684C154.84 40.01 153.67 39.11 151.798 39.11H149.8C149.224 39.11 148.864 38.858 148.864 38.372C148.864 38.03 149.044 37.778 149.386 37.598C149.818 37.778 150.304 37.868 150.826 37.868C152.644 37.868 154.084 36.698 154.084 34.844C154.084 34.25 153.94 33.728 153.634 33.26L154.912 32.594L154.138 31.28L152.464 32.18C151.96 31.91 151.42 31.784 150.826 31.784C149.008 31.784 147.568 32.99 147.568 34.844C147.568 35.564 147.784 36.194 148.216 36.752C147.514 37.13 147.1 37.778 147.1 38.57C147.1 39.182 147.28 39.65 147.64 39.992C147.136 40.424 146.848 41.054 146.848 41.828ZM152.284 34.844C152.284 35.726 151.672 36.32 150.826 36.32C149.98 36.32 149.368 35.726 149.368 34.844C149.368 33.926 149.98 33.332 150.826 33.332C151.672 33.332 152.284 33.926 152.284 34.844ZM152.95 41.828C152.95 42.71 152.14 43.196 150.844 43.196C149.458 43.196 148.612 42.656 148.612 41.72C148.612 41.252 148.738 40.892 148.99 40.64C149.278 40.694 149.62 40.712 149.998 40.712H151.402C152.392 40.712 152.95 41.018 152.95 41.828ZM164.311 36.176C164.311 33.944 162.871 31.784 160.153 31.784C157.363 31.784 155.905 34.052 155.905 36.464C155.905 38.876 157.363 41.144 160.153 41.144C162.151 41.144 163.393 40.28 164.185 38.534L162.619 37.922C162.025 39.002 161.341 39.488 160.243 39.488C158.893 39.488 158.011 38.552 157.849 36.968H164.311V36.176ZM157.939 35.42C158.227 34.142 159.073 33.44 160.153 33.44C161.431 33.44 162.151 34.25 162.367 35.42H157.939Z" fill="white"/>
</svg>
