<svg width="90" height="87" viewBox="0 0 90 87" fill="none" xmlns="http://www.w3.org/2000/svg">
<g clip-path="url(#clip0_1_125)">
<path d="M44.8003 86.4037C69.1892 86.5004 89.0364 67.362 89.1303 43.657C89.2242 19.952 69.5293 0.656947 45.1405 0.560304C20.7517 0.46366 0.904503 19.602 0.810569 43.307C0.716636 67.012 20.4115 86.3071 44.8003 86.4037Z" fill="#FAD34F"/>
<path d="M53.2854 25.3214C53.279 26.9238 52.0249 26.1806 50.3763 26.1741C48.7276 26.1675 47.3086 26.903 47.315 25.2978C47.3213 23.6925 48.663 22.4015 50.3117 22.4081C51.9603 22.4117 53.2918 23.7161 53.2854 25.3214Z" fill="white"/>
<path d="M64.6935 25.3666C64.6872 26.969 63.433 26.2258 61.7844 26.2193C60.1358 26.2127 58.7168 26.9483 58.7231 25.343C58.7295 23.7377 60.0712 22.4468 61.7198 22.4533C63.3685 22.457 64.6999 23.7614 64.6935 25.3666Z" fill="white"/>
<path d="M61.8287 32.8038C61.8163 35.9343 59.1949 38.462 55.9742 38.4492C52.7535 38.4365 50.1522 35.888 50.1646 32.7576C50.177 29.6272 52.7751 32.9854 55.9958 32.9982C59.2165 33.0109 61.8411 29.6734 61.8287 32.8038Z" fill="white"/>
</g>
<defs>
<clipPath id="clip0_1_125">
<rect width="88.3204" height="85.8441" fill="white" transform="translate(0.835938 0.430725) rotate(0.22704)"/>
</clipPath>
</defs>
</svg>
